HIERARCHY
ROOT Hips
{
	OFFSET -3.958830 18.904000 13.208200
	CHANNELS 6 Xposition Yposition Zposition Zrotation Yrotation Xrotation 
	JOINT LHipJoint
	{
		OFFSET 0.000000 0.000000 0.000000
		CHANNELS 3 Zrotation Yrotation Xrotation
		JOINT LeftUpLeg
		{
			OFFSET 1.800000 -1.400000 0.085000
			CHANNELS 3 Zrotation Yrotation Xrotation
			JOINT LeftLeg
			{
				OFFSET 2.215000 -6.000000 0.000000
				CHANNELS 3 Zrotation Yrotation Xrotation
				JOINT LeftFoot
				{
					OFFSET 2.500000 -6.900000 0.000000
					CHANNELS 3 Zrotation Yrotation Xrotation
					JOINT LeftToeBase
					{
						OFFSET 0.200000 -0.500000 1.950000
						CHANNELS 3 Zrotation Yrotation Xrotation
						End Site
						{
							OFFSET 0.000000 0.000000 0.000000
						}
					}
				}
			}
		}
	}
	JOINT RHipJoint
	{
		OFFSET 0.000000 0.000000 0.000000
		CHANNELS 3 Zrotation Yrotation Xrotation
		JOINT RightUpLeg
		{
			OFFSET -1.800000 -1.400000 0.085000
			CHANNELS 3 Zrotation Yrotation Xrotation
			JOINT RightLeg
			{
				OFFSET -2.215000 -6.000000 0.000000
				CHANNELS 3 Zrotation Yrotation Xrotation
				JOINT RightFoot
				{
					OFFSET -2.500000 -6.900000 0.000000
					CHANNELS 3 Zrotation Yrotation Xrotation
					JOINT RightToeBase
					{
						OFFSET -0.200000 -0.500000 1.950000
						CHANNELS 3 Zrotation Yrotation Xrotation
						End Site
						{
							OFFSET 0.000000 0.000000 0.000000
						}
					}
				}
			}
		}
	}
	JOINT LowerBack
	{
		OFFSET 0.000000 0.000000 0.000000
		CHANNELS 3 Zrotation Yrotation Xrotation
		JOINT Spine
		{
			OFFSET -0.087000 1.940000 -0.288900
			CHANNELS 3 Zrotation Yrotation Xrotation
			JOINT Spine1
			{
				OFFSET 0.000000 1.950000 0.060000
				CHANNELS 3 Zrotation Yrotation Xrotation
				JOINT Neck
				{
					OFFSET 0.000000 0.000000 0.000000
					CHANNELS 3 Zrotation Yrotation Xrotation
					JOINT Neck1
					{
						OFFSET 0.000000 1.600000 0.340000
						CHANNELS 3 Zrotation Yrotation Xrotation
						JOINT Head
						{
							OFFSET 0.000000 1.667000 -0.240000
							CHANNELS 3 Zrotation Yrotation Xrotation
							End Site
							{
								OFFSET 0.000000 0.000000 0.000000
							}
						}
					}
				}
				JOINT LeftShoulder
				{
					OFFSET 0.000000 0.000000 0.000000
					CHANNELS 3 Zrotation Yrotation Xrotation
					JOINT LeftArm
					{
						OFFSET 2.700000 1.550000 -0.730000
						CHANNELS 3 Zrotation Yrotation Xrotation
						JOINT LeftForeArm
						{
							OFFSET 5.450000 0.000000 0.000000
							CHANNELS 3 Zrotation Yrotation Xrotation
							JOINT LeftHand
							{
								OFFSET 3.450000 0.000000 0.000000
								CHANNELS 3 Zrotation Yrotation Xrotation
								JOINT LeftHandIndex1
								{
									OFFSET 0.750000 0.000000 0.000000
									CHANNELS 3 Zrotation Yrotation Xrotation
									End Site
									{
										OFFSET 0.000000 0.000000 0.000000
									}
								}
							}
						}
					}
				}
				JOINT RightShoulder
				{
					OFFSET 0.000000 0.000000 0.000000
					CHANNELS 3 Zrotation Yrotation Xrotation
					JOINT RightArm
					{
						OFFSET -2.700000 1.550000 -0.730000
						CHANNELS 3 Zrotation Yrotation Xrotation
						JOINT RightForeArm
						{
							OFFSET -5.450000 0.000000 0.000000
							CHANNELS 3 Zrotation Yrotation Xrotation
							JOINT RightHand
							{
								OFFSET -3.450000 0.000000 0.000000
								CHANNELS 3 Zrotation Yrotation Xrotation
								JOINT RightHandIndex1
								{
									OFFSET -0.750000 0.000000 0.000000
									CHANNELS 3 Zrotation Yrotation Xrotation
									End Site
									{
										OFFSET 0.000000 0.000000 0.000000
									}
								}
							}
						}
					}
				}
			}
		}
	}
}
MOTION
Frames: 14
Frame Time: 0.016667
0.145060 17.071930 -3.697230 -3.693133 15.108948 -9.041734 -15.046435 13.121105 3.249409 2.942081 -1.199555 -7.393374 -13.753166 6.814059 10.488376 -0.199494 4.629878 3.042677 0.565400 0.299260 0.292680 18.259662 -10.861627 3.120665 -6.952247 5.934495 -13.607199 16.806562 -13.433629 39.006039 -1.099205 -7.272449 1.916602 0.191870 0.128350 0.183710 -4.147706 -1.038489 -8.035712 15.796738 -10.130622 34.255618 -23.695246 -1.991434 10.627264 15.379173 -9.388813 -9.959150 -16.659412 7.676863 39.182866 2.556950 -3.705530 -16.036040 -24.435773 -1.674582 -0.349639 -43.863798 -3.316472 -12.387843 -33.273051 -58.809752 11.670806 -3.225385 3.532890 0.520530 -0.069220 0.058230 0.217620 -6.387242 11.669264 7.126901 -9.236192 16.227819 -3.511959 -18.469848 8.753937 -1.741853 2.278424 -1.454033 -0.060260 0.284270 -0.018350 -0.135500 
0.146470 17.069790 -3.694950 -3.652356 15.179523 -9.043316 -15.038761 13.104905 3.246109 2.907858 -1.209576 -7.373549 -13.782202 6.831162 10.547783 -0.196680 4.632638 3.041482 0.564150 0.297980 0.291110 18.267996 -10.877027 3.118849 -6.992347 5.928151 -13.619955 16.769356 -13.434818 39.049698 -1.098101 -7.277657 1.914900 0.190780 0.128510 0.181970 -4.172538 -0.989570 -8.031558 15.870754 -10.183773 34.207225 -23.837819 -2.001334 10.701165 15.325499 -9.372977 -9.990772 -16.643874 7.629271 39.151337 2.687370 -3.768950 -15.970460 -24.399471 -1.742175 -0.290072 -43.828670 -3.185136 -12.489111 -33.463023 -58.897053 11.757389 -3.218867 3.539182 0.518910 -0.069880 0.056490 0.217050 -6.317206 11.687578 7.194277 -9.688315 15.996656 -3.360160 -17.784201 8.427033 -1.589264 2.282188 -1.442499 -0.059940 0.283080 -0.018370 -0.134720 
0.148110 17.067480 -3.691550 -3.593895 15.291785 -9.091411 -15.025439 13.077777 3.239436 2.878108 -1.221472 -7.310770 -13.838417 6.865432 10.660147 -0.196031 4.643345 3.036962 0.564350 0.296290 0.288070 18.282442 -10.903893 3.115367 -7.049444 5.917156 -13.598024 16.711330 -13.442875 39.123385 -1.099069 -7.287974 1.915290 0.189850 0.127760 0.178760 -4.215123 -0.906279 -8.024448 16.001255 -10.277330 34.184972 -24.080128 -1.998591 10.876468 15.226462 -9.327805 -10.084671 -16.619792 7.521738 39.166471 2.973110 -3.918410 -15.996780 -24.289371 -1.921276 -0.181422 -43.812474 -3.001835 -12.693696 -33.684956 -59.079520 11.840577 -3.205920 3.546068 0.522350 -0.072470 0.054710 0.217820 -6.222396 11.772394 7.363646 -10.358662 15.482013 -3.148196 -16.762354 7.794949 -1.357732 2.285792 -1.420716 -0.061340 0.283410 -0.017850 -0.135920 
0.150630 17.065820 -3.687590 -3.512329 15.433849 -9.174106 -15.010721 13.048438 3.232791 2.832317 -1.238148 -7.221749 -13.907906 6.911726 10.814870 -0.193151 4.656692 3.030397 0.564690 0.294220 0.287690 18.298100 -10.935512 3.109549 -7.135781 5.896255 -13.542385 16.639255 -13.457711 39.223089 -1.102004 -7.300302 1.913211 0.187080 0.124050 0.174630 -4.262450 -0.814262 -8.016786 16.127018 -10.379398 34.216794 -24.348480 -1.979593 11.096229 15.106160 -9.263910 -10.233410 -16.605851 7.390634 39.268450 3.350920 -4.102870 -16.094910 -24.186863 -2.193469 -0.033952 -43.827914 -2.812576 -12.985785 -33.814006 -59.369402 11.869906 -3.185795 3.553624 0.528610 -0.078810 0.055430 0.216510 -6.072470 11.933063 7.603759 -11.086282 14.777301 -2.943982 -15.679504 6.956313 -1.118621 2.296450 -1.391929 -0.062150 0.282960 -0.018120 -0.137400 
0.153790 17.062860 -3.682470 -3.431773 15.565689 -9.240105 -15.000121 13.028288 3.227997 2.781550 -1.255618 -7.155211 -13.965042 6.959262 10.985665 -0.187270 4.670017 3.023343 0.561650 0.289410 0.283890 18.309312 -10.959378 3.104242 -7.207582 5.885364 -13.511125 16.544261 -13.475413 39.376397 -1.105295 -7.316186 1.908001 0.182100 0.120870 0.171790 -4.297275 -0.749740 -8.011192 16.208381 -10.440621 34.304631 -24.517597 -1.944515 11.206896 14.973167 -9.234624 -10.375957 -16.666819 7.265628 39.332783 3.745920 -4.305030 -16.170500 -24.105885 -2.386873 0.080314 -43.949220 -2.635154 -13.244927 -33.899102 -59.683378 11.897274 -3.169174 3.561327 0.533220 -0.085380 0.056310 0.214480 -5.884561 12.058178 7.831493 -11.764458 13.997247 -2.784509 -14.753220 6.270101 -0.924969 2.306976 -1.366034 -0.061740 0.280780 -0.016510 -0.137210 
0.157810 17.059330 -3.675880 -3.338637 15.702031 -9.260943 -14.991498 13.009636 3.224988 2.701981 -1.276948 -7.117672 -14.017552 7.003556 11.152570 -0.187730 4.685094 3.016255 0.555190 0.279020 0.277590 18.318666 -10.979239 3.100062 -7.292267 5.884102 -13.529043 16.449440 -13.503244 39.558658 -1.107124 -7.336826 1.902598 0.175740 0.121200 0.168520 -4.326888 -0.694116 -8.008469 16.250004 -10.466078 34.342269 -24.634689 -1.906066 11.275719 14.839072 -9.201405 -10.501253 -16.707839 7.164984 39.433993 4.109490 -4.483510 -16.222860 -23.985079 -2.510179 0.186748 -44.188382 -2.444310 -13.476469 -34.017188 -60.073499 11.967081 -3.158440 3.564246 0.540820 -0.089530 0.054190 0.211420 -5.733407 12.124024 8.020224 -12.173518 13.358080 -2.665318 -14.089102 5.753810 -0.789020 2.311906 -1.342744 -0.065820 0.280990 -0.010880 -0.139190 
0.162340 17.055360 -3.668300 -3.255631 15.858566 -9.250724 -14.984682 12.991742 3.221880 2.609834 -1.297346 -7.097248 -14.049091 7.037423 11.297948 -0.185382 4.691546 3.011578 0.550960 0.272610 0.274180 18.326524 -10.995249 3.098086 -7.377944 5.885743 -13.577373 16.387761 -13.547661 39.750526 -1.111444 -7.361384 1.893824 0.170210 0.118620 0.166440 -4.352369 -0.644867 -8.007951 16.271949 -10.477972 34.319051 -24.714538 -1.877579 11.354307 14.720176 -9.143376 -10.602952 -16.682649 7.061725 39.557848 4.401670 -4.613430 -16.261480 -23.822157 -2.587014 0.287902 -44.490131 -2.276825 -13.671098 -34.192456 -60.446490 12.080274 -3.149115 3.568942 0.545770 -0.094340 0.054370 0.208310 -5.649763 12.130919 8.169506 -12.400698 12.848019 -2.534159 -13.523911 5.431980 -0.683273 2.315815 -1.326072 -0.066440 0.278470 -0.008100 -0.140270 
0.167470 17.051550 -3.660050 -3.189410 16.003747 -9.237982 -14.979424 12.976544 3.219390 2.524040 -1.307114 -7.049727 -14.058031 7.056381 11.384017 -0.183522 4.691811 3.008602 0.549370 0.269880 0.273760 18.332880 -11.009162 3.096468 -7.439759 5.888231 -13.619266 16.322130 -13.581296 39.928536 -1.115419 -7.382299 1.885997 0.167170 0.113620 0.163900 -4.373442 -0.601048 -8.008040 16.285115 -10.477387 34.276608 -24.767002 -1.854533 11.430008 14.627584 -9.086821 -10.668287 -16.627346 6.980878 39.688588 4.611810 -4.689860 -16.308050 -23.699320 -2.621659 0.376496 -44.774737 -2.117803 -13.839033 -34.425630 -60.831264 12.245215 -3.139253 3.574809 0.549680 -0.099400 0.055620 0.205310 -5.577058 12.101998 8.264963 -12.544156 12.511640 -2.409246 -13.008186 5.179294 -0.597600 2.318717 -1.312969 -0.066330 0.275210 -0.007750 -0.141920 
0.172200 17.047100 -3.650520 -3.094387 16.160306 -9.176632 -14.975588 12.960454 3.218321 2.400120 -1.313988 -7.004194 -14.051302 7.061046 11.420350 -0.180533 4.685411 3.010062 0.547360 0.266700 0.273660 18.338002 -11.020700 3.096384 -7.530926 5.894110 -13.693105 16.293169 -13.623522 40.091119 -1.119661 -7.404041 1.878434 0.163670 0.110300 0.161330 -4.391260 -0.559430 -8.011580 16.233234 -10.421675 34.154638 -24.769259 -1.812128 11.498781 14.523987 -8.978067 -10.719396 -16.464279 6.907257 39.914729 4.801560 -4.728650 -16.256580 -23.553816 -2.658934 0.474565 -45.039408 -1.939721 -13.962073 -34.760409 -61.084550 12.450490 -3.132649 3.578450 0.552100 -0.103180 0.056780 0.203930 -5.502486 12.045801 8.332918 -12.548775 12.293460 -2.294966 -12.601827 5.010763 -0.532756 2.321283 -1.302709 -0.066350 0.273130 -0.008410 -0.142970 
0.176620 17.043620 -3.641030 -3.000388 16.302730 -9.129503 -14.973955 12.949234 3.218145 2.286492 -1.312894 -6.939094 -14.036512 7.063868 11.444225 -0.176368 4.678224 3.011651 0.545860 0.265830 0.274540 18.340471 -11.029062 3.096739 -7.619856 5.902350 -13.745402 16.279682 -13.661803 40.232653 -1.124603 -7.423738 1.870242 0.161150 0.105690 0.158970 -4.401975 -0.529210 -8.016581 16.132533 -10.339216 34.065981 -24.721977 -1.759135 11.560665 14.429295 -8.845696 -10.760093 -16.251654 6.825314 40.192308 4.930290 -4.743170 -16.213920 -23.466144 -2.728964 0.571241 -45.217435 -1.763693 -14.069839 -35.114491 -61.218439 12.645258 -3.125521 3.581090 0.553940 -0.107210 0.059640 0.202200 -5.387026 12.011791 8.384168 -12.529704 12.129887 -2.214916 -12.289118 4.883303 -0.485378 2.325126 -1.294113 -0.065490 0.270810 -0.010120 -0.143550 
0.181040 17.040950 -3.631590 -2.906434 16.448868 -9.071608 -14.972217 12.937634 3.217646 2.154663 -1.309951 -6.863094 -13.985581 7.048627 11.432510 -0.172334 4.663809 3.017105 0.548190 0.267960 0.278860 18.343069 -11.037990 3.097630 -7.717373 5.908126 -13.803932 16.281899 -13.700956 40.351556 -1.131470 -7.442529 1.862551 0.159270 0.100500 0.159230 -4.413360 -0.496785 -8.021469 16.035271 -10.262764 33.959931 -24.700692 -1.711157 11.635976 14.353861 -8.693335 -10.797361 -15.990648 6.746526 40.475912 4.989620 -4.714150 -16.164130 -23.393423 -2.807519 0.668062 -45.308832 -1.580922 -14.168296 -35.535315 -61.343081 12.881529 -3.116867 3.586963 0.555850 -0.110570 0.064030 0.202280 -5.295643 11.973317 8.433610 -12.438458 12.036770 -2.131873 -12.017161 4.666834 -0.445861 2.330504 -1.287822 -0.062440 0.267240 -0.014420 -0.144320 
0.186360 17.039310 -3.622150 -2.826997 16.566568 -9.036230 -14.970078 12.926970 3.216825 2.028010 -1.298783 -6.747290 -13.916687 7.026255 11.393285 -0.167016 4.648416 3.022609 0.551520 0.271550 0.284710 18.345990 -11.048342 3.097559 -7.806329 5.905913 -13.824695 16.287230 -13.732049 40.438827 -1.138414 -7.456796 1.855481 0.158210 0.094480 0.160360 -4.425160 -0.462825 -8.024688 15.972280 -10.207942 33.871845 -24.710094 -1.673611 11.722583 14.307675 -8.568027 -10.822919 -15.768365 6.668014 40.731016 4.991700 -4.687270 -16.153440 -23.349005 -2.865986 0.740662 -45.326170 -1.428081 -14.245158 -35.959866 -61.419807 13.118109 -3.107686 3.594008 0.556540 -0.114600 0.070210 0.203170 -5.234691 11.940467 8.476251 -12.327454 12.032394 -2.059838 -11.782755 4.309688 -0.413021 2.340685 -1.280512 -0.058300 0.264140 -0.019520 -0.144140 
0.192420 17.038390 -3.612760 -2.765504 16.666756 -9.013327 -14.966823 12.915941 3.214606 1.905263 -1.283082 -6.612446 -13.825606 6.998590 11.349785 -0.163614 4.631276 3.029087 0.556060 0.277140 0.290270 18.350195 -11.060022 3.097438 -7.885713 5.904122 -13.832093 16.289603 -13.760653 40.524234 -1.145557 -7.471612 1.848359 0.158690 0.088930 0.160990 -4.440029 -0.424915 -8.026061 15.955377 -10.176429 33.784418 -24.744105 -1.652811 11.812017 14.270277 -8.479472 -10.832990 -15.605308 6.619753 40.953540 5.011650 -4.669450 -16.184660 -23.301419 -2.899154 0.798048 -45.336592 -1.310166 -14.301054 -36.332731 -61.477093 13.327353 -3.099248 3.599173 0.557840 -0.118470 0.075750 0.203860 -5.194983 11.903132 8.496773 -12.204756 12.101167 -1.994629 -11.573106 3.992138 -0.387229 2.349062 -1.274669 -0.054480 0.261690 -0.024720 -0.143910 
0.198500 17.037610 -3.603500 -2.703280 16.756994 -8.999885 -14.964873 12.908256 3.213086 1.781889 -1.265026 -6.467709 -13.726473 6.969842 11.302733 -0.160882 4.616728 3.035551 0.561120 0.282130 0.294990 18.353054 -11.069780 3.096105 -7.963446 5.900248 -13.828709 16.280786 -13.783956 40.607240 -1.151940 -7.485210 1.844217 0.159310 0.085750 0.161760 -4.450832 -0.396283 -8.026703 15.920592 -10.140913 33.712824 -24.748225 -1.636767 11.895725 14.230836 -8.414131 -10.837386 -15.484229 6.597765 41.149218 5.059500 -4.663090 -16.212440 -23.256092 -2.936735 0.851326 -45.359329 -1.213971 -14.348692 -36.616127 -61.518070 13.480085 -3.092941 3.602752 0.559210 -0.121230 0.080180 0.206580 -5.147187 11.884242 8.498822 -12.151187 12.185055 -1.943744 -11.350577 3.718969 -0.362065 2.354325 -1.268549 -0.051480 0.261270 -0.029520 -0.143470 
